<?xml version="1.0" encoding="UTF-8" standalone="no" ?>
<!DOCTYPE svg PUBLIC "-//W3C//DTD SVG 1.1//EN" "http://www.w3.org/Graphics/SVG/1.1/DTD/svg11.dtd">
<svg xmlns="http://www.w3.org/2000/svg" xmlns:xlink="http://www.w3.org/1999/xlink" version="1.1" width="30" height="30" viewBox="0 0 30 30" xml:space="preserve">
<desc>Created with Fabric.js 3.6.3</desc>
<defs>
</defs>
<g transform="matrix(1 0 0 1 271 143)"  >
<g style=""   >
		<g transform="matrix(1 0 0 1 0 0)"  >
<path style="stroke: none; stroke-width: 1; stroke-dasharray: none; stroke-linecap: butt; stroke-dashoffset: 0; stroke-linejoin: miter; stroke-miterlimit: 4; fill: rgb(58,51,117); fill-rule: nonzero; opacity: 1;"  transform=" translate(-26, -26)" d="M 40.824 52 H 11.176 C 5.003 52 0 46.997 0 40.824 V 11.176 C 0 5.003 5.003 0 11.176 0 h 29.649 C 46.997 0 52 5.003 52 11.176 v 29.649 C 52 46.997 46.997 52 40.824 52 z" stroke-linecap="round" />
</g>
		<g transform="matrix(1 0 0 1 -0.82 -0.76)"  >
<path style="stroke: none; stroke-width: 1; stroke-dasharray: none; stroke-linecap: butt; stroke-dashoffset: 0; stroke-linejoin: miter; stroke-miterlimit: 4; fill: rgb(228,209,235); fill-rule: nonzero; opacity: 1;"  transform=" translate(-25.18, -25.24)" d="M 27.44 39 H 24.2 l -2.76 -9.04 h -8.32 L 10.48 39 H 7.36 l 8.24 -28 h 3.32 l 8.52 28 z m -6.72 -12 l -3.48 -11.36 L 13.88 27 h 6.84 z M 31.48 33.48 c 0 2.267 1.333 3.399 4 3.399 c 1.653 0 3.466 -0.546 5.44 -1.64 L 42 37.6 c -2.054 1.254 -4.2 1.881 -6.44 1.881 c -4.64 0 -6.96 -1.946 -6.96 -5.841 v -8.2 c 0 -2.16 0.673 -3.841 2.02 -5.04 c 1.346 -1.2 3.126 -1.801 5.34 -1.801 s 3.94 0.594 5.18 1.78 c 1.24 1.187 1.86 2.834 1.86 4.94 V 30.8 l -11.52 0.6 v 2.08 z m 8.6 -5.24 v -3.08 c 0 -1.413 -0.44 -2.42 -1.32 -3.021 c -0.88 -0.6 -1.907 -0.899 -3.08 -0.899 c -1.174 0 -2.167 0.359 -2.98 1.08 c -0.814 0.72 -1.22 1.773 -1.22 3.16 v 3.199 l 8.6 -0.439 z" stroke-linecap="round" />
</g>
</g>
</g>
<g transform="matrix(0.55 0 0 0.55 15.08 14.92)"  >
<g style=""   >
		<g transform="matrix(1 0 0 1 0 0)"  >
<path style="stroke: none; stroke-width: 1; stroke-dasharray: none; stroke-linecap: butt; stroke-dashoffset: 0; stroke-linejoin: miter; stroke-miterlimit: 4; fill: rgb(38,20,0); fill-rule: nonzero; opacity: 1;"  transform=" translate(-26, -26)" d="M 40.824 52 H 11.176 C 5.003 52 0 46.997 0 40.824 V 11.176 C 0 5.003 5.003 0 11.176 0 h 29.649 C 46.997 0 52 5.003 52 11.176 v 29.649 C 52 46.997 46.997 52 40.824 52 z" stroke-linecap="round" />
</g>
		<g transform="matrix(1 0 0 1 -1.96 -1.2)"  >
<path style="stroke: none; stroke-width: 1; stroke-dasharray: none; stroke-linecap: butt; stroke-dashoffset: 0; stroke-linejoin: miter; stroke-miterlimit: 4; fill: rgb(230,210,192); fill-rule: nonzero; opacity: 1;"  transform=" translate(-24.04, -24.8)" d="M 30.68 39 h -3.24 l -2.76 -9.04 h -8.32 L 13.72 39 H 10.6 l 8.24 -28 h 3.32 l 8.52 28 z m -6.72 -12 l -3.48 -11.36 L 17.12 27 h 6.84 z M 37.479 12.24 c 0 0.453 -0.16 0.84 -0.48 1.16 c -0.32 0.319 -0.7 0.479 -1.14 0.479 c -0.44 0 -0.827 -0.166 -1.16 -0.5 c -0.334 -0.333 -0.5 -0.713 -0.5 -1.14 s 0.166 -0.807 0.5 -1.141 c 0.333 -0.333 0.72 -0.5 1.16 -0.5 c 0.44 0 0.82 0.16 1.14 0.48 c 0.321 0.322 0.48 0.709 0.48 1.162 z M 37.24 39 h -2.88 V 18.96 h 2.88 V 39 z" stroke-linecap="round" />
</g>
</g>
</g>
</svg>